<svg width="1018" height="579" viewBox="0 0 1018 579" fill="none" xmlns="http://www.w3.org/2000/svg">
<path d="M876.654 1.22976L140.609 1.22976C129.975 1.22976 121.353 9.851 121.353 20.4858V530.557C121.353 541.192 129.975 549.813 140.609 549.813H876.654C887.289 549.813 895.91 541.192 895.91 530.557V20.4858C895.91 9.851 887.289 1.22976 876.654 1.22976Z" fill="url(#paint0_linear_520_9)"/>
<path d="M876.654 1.22976L140.609 1.22976C129.975 1.22976 121.353 9.851 121.353 20.4858V530.557C121.353 541.192 129.975 549.813 140.609 549.813H876.654C887.289 549.813 895.91 541.192 895.91 530.557V20.4858C895.91 9.851 887.289 1.22976 876.654 1.22976Z" fill="url(#paint1_linear_520_9)"/>
<path d="M876.654 1.22976L140.609 1.22976C129.975 1.22976 121.353 9.851 121.353 20.4858V530.557C121.353 541.192 129.975 549.813 140.609 549.813H876.654C887.289 549.813 895.91 541.192 895.91 530.557V20.4858C895.91 9.851 887.289 1.22976 876.654 1.22976Z" stroke="#333333" stroke-width="1.54049"/>
<path d="M0 541.671H1017.27V559.948C1017.27 563.996 1014.64 567.573 1010.75 568.715C1005.68 570.205 998.617 572.201 993.2 573.423C982.575 575.819 940.276 578.065 940.276 578.065H84.728C83.882 578.065 83.0593 578.072 82.2134 578.078C75.4861 578.131 43.0209 578.121 22.0139 573.394C17.2268 572.317 11.0446 570.547 6.45092 569.172C2.5974 568.019 0 564.458 0 560.436L0 541.671Z" fill="url(#paint2_linear_520_9)"/>
<path d="M0 541.671H1017.27V559.948C1017.27 563.996 1014.64 567.573 1010.75 568.715C1005.68 570.205 998.617 572.201 993.2 573.423C982.575 575.819 940.276 578.065 940.276 578.065H84.728C83.882 578.065 83.0593 578.072 82.2134 578.078C75.4861 578.131 43.0209 578.121 22.0139 573.394C17.2268 572.317 11.0446 570.547 6.45092 569.172C2.5974 568.019 0 564.458 0 560.436L0 541.671Z" fill="url(#paint3_linear_520_9)" fill-opacity="0.3"/>
<path d="M431.903 543.661H585.357V543.661C585.357 553.187 577.634 560.91 568.107 560.91H449.153C439.626 560.91 431.903 553.187 431.903 543.661V543.661Z" fill="#C4C4C4"/>
<path d="M431.903 543.661H585.357V543.661C585.357 553.187 577.634 560.91 568.107 560.91H449.153C439.626 560.91 431.903 553.187 431.903 543.661V543.661Z" fill="url(#paint4_linear_520_9)"/>
<path d="M431.903 543.661H585.357V543.661C585.357 553.187 577.634 560.91 568.107 560.91H449.153C439.626 560.91 431.903 553.187 431.903 543.661V543.661Z" fill="url(#paint5_linear_520_9)"/>
<defs>
<linearGradient id="paint0_linear_520_9" x1="122.124" y1="2" x2="907.097" y2="531.311" gradientUnits="userSpaceOnUse">
<stop stop-color="#333333"/>
<stop offset="0.53125" stop-color="#596368"/>
<stop offset="1" stop-color="#333333"/>
</linearGradient>
<linearGradient id="paint1_linear_520_9" x1="508.632" y1="2" x2="508.632" y2="564.261" gradientUnits="userSpaceOnUse">
<stop offset="0.6875" stop-opacity="0.4"/>
<stop offset="0.883584" stop-color="#333333" stop-opacity="0.643"/>
<stop offset="1" stop-opacity="0.94"/>
</linearGradient>
<linearGradient id="paint2_linear_520_9" x1="1017.27" y1="541.671" x2="0" y2="541.671" gradientUnits="userSpaceOnUse">
<stop stop-color="#212121"/>
<stop offset="0.5" stop-color="#555555"/>
<stop offset="1" stop-color="#212121"/>
</linearGradient>
<linearGradient id="paint3_linear_520_9" x1="508.634" y1="541.671" x2="508.634" y2="578.088" gradientUnits="userSpaceOnUse">
<stop stop-color="#666666"/>
<stop offset="0.5" stop-color="#666666"/>
<stop offset="0.541667" stop-opacity="0.5"/>
<stop offset="1"/>
</linearGradient>
<linearGradient id="paint4_linear_520_9" x1="508.63" y1="543.661" x2="508.63" y2="560.91" gradientUnits="userSpaceOnUse">
<stop stop-color="#999999"/>
<stop offset="0.151042" stop-color="#777777"/>
<stop offset="0.609375" stop-color="#444444"/>
<stop offset="0.822917" stop-color="#333333"/>
<stop offset="1" stop-color="#222222"/>
</linearGradient>
<linearGradient id="paint5_linear_520_9" x1="431.903" y1="543.661" x2="585.357" y2="543.661" gradientUnits="userSpaceOnUse">
<stop stop-color="#333333"/>
<stop offset="0.130208" stop-color="#333333" stop-opacity="0.42"/>
<stop offset="0.932292" stop-color="#333333" stop-opacity="0.118947"/>
<stop offset="1" stop-color="#333333" stop-opacity="0.83"/>
</linearGradient>
</defs>
</svg>
